<?xml version="1.0" standalone="no"?><svg xmlns="http://www.w3.org/2000/svg" viewBox="0 0 1440 320"><path fill="#2D3652" fill-opacity="1" d="M0,256L26.7,250.7C53.3,245,107,235,160,213.3C213.3,192,267,160,320,133.3C373.3,107,427,85,480,117.3C533.3,149,587,235,640,229.3C693.3,224,747,128,800,85.3C853.3,43,907,53,960,74.7C1013.3,96,1067,128,1120,122.7C1173.3,117,1227,75,1280,48C1333.3,21,1387,11,1413,5.3L1440,0L1440,320L1413.3,320C1386.7,320,1333,320,1280,320C1226.7,320,1173,320,1120,320C1066.7,320,1013,320,960,320C906.7,320,853,320,800,320C746.7,320,693,320,640,320C586.7,320,533,320,480,320C426.7,320,373,320,320,320C266.7,320,213,320,160,320C106.7,320,53,320,27,320L0,320Z"></path></svg>